<?xml version="1.0" encoding="utf-8"?>
<svg viewBox="0 0 500 500" xmlns="http://www.w3.org/2000/svg">
  <g id="freepik--background-complete--inject-66">
    <rect y="382.4" width="500" height="0.25" style="fill:#ebebeb"/>
    <rect x="290.21" y="389.21" width="25.46" height="0.25" style="fill:#ebebeb"/>
    <rect x="395.11" y="394.62" width="60.33" height="0.25" style="fill:#ebebeb"/>
    <rect x="222.46" y="389.33" width="62.33" height="0.25" style="fill:#ebebeb"/>
    <rect x="169" y="396.81" width="13.04" height="0.25" style="fill:#ebebeb"/>
    <rect x="194.71" y="396.81" width="59.38" height="0.25" style="fill:#ebebeb"/>
    <rect x="52.46" y="392.59" width="38.45" height="0.25" style="fill:#ebebeb"/>
    <path d="M237,337.8H43.91a5.71,5.71,0,0,1-5.7-5.71V60.66A5.71,5.71,0,0,1,43.91,55H237a5.71,5.71,0,0,1,5.71,5.71V332.09A5.71,5.71,0,0,1,237,337.8ZM43.91,55.2a5.46,5.46,0,0,0-5.45,5.46V332.09a5.46,5.46,0,0,0,5.45,5.46H237a5.47,5.47,0,0,0,5.46-5.46V60.66A5.47,5.47,0,0,0,237,55.2Z" style="fill:#ebebeb"/>
    <path d="M453.31,337.8H260.21a5.72,5.72,0,0,1-5.71-5.71V60.66A5.72,5.72,0,0,1,260.21,55h193.1A5.71,5.71,0,0,1,459,60.66V332.09A5.71,5.71,0,0,1,453.31,337.8ZM260.21,55.2a5.47,5.47,0,0,0-5.46,5.46V332.09a5.47,5.47,0,0,0,5.46,5.46h193.1a5.47,5.47,0,0,0,5.46-5.46V60.66a5.47,5.47,0,0,0-5.46-5.46Z" style="fill:#ebebeb"/>
    <polygon points="195.96 295.67 129.56 295.67 125.53 249.17 191.93 249.17 195.96 295.67" style="fill:#e6e6e6"/>
    <polygon points="199.4 295.67 133 295.67 128.97 249.17 195.37 249.17 199.4 295.67" style="fill:#f0f0f0"/>
    <polygon points="142.08 285.68 139.86 259.15 186.29 259.15 188.51 285.68 142.08 285.68" style="fill:#fff"/>
    <rect x="203.1" y="295.67" width="7.79" height="86.73" style="fill:#e6e6e6"/>
    <rect x="207.94" y="295.67" width="5.41" height="86.73" style="fill:#f0f0f0"/>
    <rect x="137.94" y="295.67" width="75.41" height="9.57" transform="translate(351.29 600.91) rotate(180)" style="fill:#f0f0f0"/>
    <rect x="132.81" y="305.24" width="7.79" height="77.16" style="fill:#e6e6e6"/>
    <rect x="137.65" y="305.24" width="5.41" height="77.16" style="fill:#f0f0f0"/>
    <rect x="77.36" y="305.24" width="7.79" height="77.16" style="fill:#e6e6e6"/>
    <rect x="82.2" y="305.24" width="5.41" height="77.16" style="fill:#f0f0f0"/>
    <rect x="153.8" y="305.24" width="7.79" height="77.16" style="fill:#e6e6e6"/>
    <rect x="158.63" y="305.24" width="5.41" height="77.16" style="fill:#f0f0f0"/>
    <rect x="77.36" y="295.67" width="60.58" height="9.57" style="fill:#e6e6e6"/>
    <rect x="129.51" y="79.41" width="234.33" height="130.46" style="fill:#e0e0e0"/>
    <rect x="130.69" y="79.41" width="246.02" height="130.46" style="fill:#f5f5f5"/>
    <rect x="192.49" y="25.65" width="122.42" height="237.98" transform="translate(398.34 -109.06) rotate(90)" style="fill:#fff"/>
    <polygon points="231.07 205.85 276 83.43 201.85 83.43 156.92 205.85 231.07 205.85" style="fill:#f5f5f5"/>
    <polygon points="302.44 205.85 347.37 83.43 291.43 83.43 246.5 205.85 302.44 205.85" style="fill:#f5f5f5"/>
    <rect x="418.19" y="257.8" width="19.92" height="124.6" style="fill:#e6e6e6"/>
    <polygon points="432.87 382.4 438.11 382.4 438.11 372.81 427.38 372.81 432.87 382.4" style="fill:#fafafa"/>
    <rect x="234.53" y="257.8" width="19.92" height="124.6" style="fill:#e6e6e6"/>
    <rect x="249.88" y="257.8" width="188.23" height="122.01" style="fill:#fafafa"/>
    <path d="M434.55,297.17H253.45V262.71h181.1Zm-180.1-1h179.1V263.71H254.45Z" style="fill:#e6e6e6"/>
    <path d="M402.67,279.44H288.84c-5.28,0-10.37-4.26-14-11.7l-.34-.71H417l-.34.71C413,275.18,408,279.44,402.67,279.44ZM276.14,268c3.38,6.63,8,10.41,12.7,10.41H402.67c4.72,0,9.32-3.78,12.7-10.41Z" style="fill:#e6e6e6"/>
    <polygon points="255.12 382.4 249.88 382.4 249.88 372.81 260.61 372.81 255.12 382.4" style="fill:#fafafa"/>
    <path d="M434.55,336H253.45V301.58h181.1Zm-180.1-1h179.1V302.58H254.45Z" style="fill:#e6e6e6"/>
    <path d="M402.67,318.31H288.84c-5.28,0-10.37-4.27-14-11.7l-.34-.72H417l-.34.72C413,314,408,318.31,402.67,318.31ZM276.14,306.89c3.38,6.63,8,10.42,12.7,10.42H402.67c4.72,0,9.32-3.79,12.7-10.42Z" style="fill:#e6e6e6"/>
    <path d="M434.55,374.9H253.45V340.44h181.1Zm-180.1-1h179.1V341.44H254.45Z" style="fill:#e6e6e6"/>
    <path d="M402.67,357.17H288.84c-5.28,0-10.37-4.26-14-11.69l-.34-.72H417l-.34.72C413,352.91,408,357.17,402.67,357.17ZM276.14,345.76c3.38,6.63,8,10.41,12.7,10.41H402.67c4.72,0,9.32-3.78,12.7-10.41Z" style="fill:#e6e6e6"/>
    <polygon points="120.98 274.28 120.98 276.7 119.44 276.7 118.16 295.67 99.32 295.67 98.05 276.7 96.5 276.7 96.5 274.28 120.98 274.28" style="fill:#e6e6e6"/>
    <path d="M114.78,227.21c-1.54-11.3-16.79-14.52-36.14-14.94-18.41-.39-24.31-6.9-24.31-6.9s.06,26.37,26.59,35.93C106.11,250.36,116.33,238.53,114.78,227.21Z" style="fill:#e6e6e6"/>
    <path d="M105.38,252.82c.32-4.64,7.74-13.18,25.59-9.3,12.9,2.81,17.7-3.88,17.7-3.88s-1.2,18.88-20.6,24.55C109.64,269.58,104.81,261,105.38,252.82Z" style="fill:#e6e6e6"/>
    <path d="M109.45,281.4a.69.69,0,0,0,.53-.24c1.29-1.53.23-5.19-1.23-10.26-1.88-6.5-4.22-14.6-2.24-20.47a82.34,82.34,0,0,1,3.84-9.08c2.8-5.92,5.22-11,3.2-16.38a.69.69,0,1,0-1.29.49c1.81,4.79-.38,9.43-3.16,15.31a85.59,85.59,0,0,0-3.9,9.22c-2.11,6.28.29,14.61,2.22,21.29,1.14,4,2.32,8,1.51,9a.68.68,0,0,0,.08,1A.66.66,0,0,0,109.45,281.4Z" style="fill:#e6e6e6"/>
  </g>
  <g id="freepik--Shadow--inject-66">
    <ellipse id="freepik--path--inject-66" cx="250" cy="416.24" rx="193.89" ry="11.32" style="fill:#f5f5f5"/>
  </g>
  <g id="freepik--Login--inject-66">
    <polygon points="249.96 361.05 107.96 361.05 100.19 132.68 242.19 132.68 249.96 361.05" style="fill: rgb(164, 222, 162);"/>
    <polygon points="257.805 353.96 115.089 353.96 107.27 125.59 249.986 125.59 257.805 353.96" style="fill: rgba(21, 148, 53, 0.53);"/>
    <polygon points="257.05 353.96 115.05 353.96 107.27 127.1 249.27 127.1 257.05 353.96" style="opacity: 0.3; paint-order: fill; fill: rgb(104, 143, 139);"/>
    <ellipse cx="180.5" cy="191.09" rx="39.27" ry="40.63" transform="translate(-82.31 185.84) rotate(-45.49)" style="fill: rgb(69, 147, 91);"/>
    <path d="M213.47,191.09a32,32,0,0,1-3.45,15.7,31.59,31.59,0,0,1-28.4,17.26,34.26,34.26,0,0,1-29.56-17.26,33.49,33.49,0,0,1-4.52-15.7,31.64,31.64,0,0,1,31.84-33A34.36,34.36,0,0,1,213.47,191.09Z" style="fill: rgb(255, 255, 255);"/>
    <path d="M210,206.79a31.59,31.59,0,0,1-28.4,17.26,34.26,34.26,0,0,1-29.56-17.26A50.59,50.59,0,0,1,180.74,198,53.48,53.48,0,0,1,210,206.79Z" style="opacity: 0.6; fill: rgb(25, 185, 121);"/>
    <ellipse cx="180.12" cy="179.81" rx="14.44" ry="14.94" transform="translate(-74.38 182.19) rotate(-45.49)" style="opacity: 0.6; fill: rgba(25, 185, 121, 0.79);"/>
    <polygon points="228.52 271.26 137.94 271.26 137.33 253.26 227.91 253.26 228.52 271.26" style="fill:#fff"/>
    <polygon points="229.62 303.43 139.03 303.43 138.42 285.43 229.01 285.43 229.62 303.43" style="fill: rgb(184, 204, 189);"/>
    <path d="M 194.66 287.91 L 172.83 290.91 C 171.949 291.01 171.341 291.84 171.51 292.71 L 174.38 307.34 C 174.575 308.23 175.416 308.824 176.32 308.71 L 198.15 305.71 C 199.028 305.599 199.629 304.769 199.46 303.9 L 196.6 289.27 C 196.405 288.381 195.562 287.79 194.66 287.91 Z M 188.39 302.73 L 184.39 303.26 L 184 298.54 C 183.164 298.178 182.556 297.432 182.37 296.54 C 182.059 295.098 183.063 293.702 184.53 293.54 C 186.002 293.35 187.375 294.319 187.69 295.77 C 187.866 296.63 187.569 297.519 186.91 298.1 L 188.39 302.73 Z" style="fill: rgb(250, 187, 0);"/>
    <path d="M192.5,287.12h0a1.56,1.56,0,0,1-1.72-1.21l-.28-1.43a8.23,8.23,0,0,0-8.62-6.56,7,7,0,0,0-6.46,8.39l.32,1.65a1.34,1.34,0,0,1-1.17,1.6h0a1.54,1.54,0,0,1-1.72-1.21l-.27-1.39a9.85,9.85,0,0,1,8-11.75,11.2,11.2,0,0,1,12.8,8.67l.32,1.64A1.34,1.34,0,0,1,192.5,287.12Z" style="fill: rgb(250, 187, 0);"/>
    <polygon points="214.67 328.64 155.7 328.64 155.31 316.92 214.27 316.92 214.67 328.64" style="fill: rgb(250, 187, 0);"/>
    <path d="M186.22,262.26a3.16,3.16,0,0,1-3.18,3.29,3.44,3.44,0,0,1-3.41-3.29,3.16,3.16,0,0,1,3.18-3.29A3.43,3.43,0,0,1,186.22,262.26Z" style="fill:#263238"/>
    <path d="M172,262.26a3.15,3.15,0,0,1-3.18,3.29,3.43,3.43,0,0,1-3.4-3.29,3.16,3.16,0,0,1,3.18-3.29A3.42,3.42,0,0,1,172,262.26Z" style="fill:#263238"/>
    <path d="M157.87,262.26a3.16,3.16,0,0,1-3.18,3.29,3.42,3.42,0,0,1-3.4-3.29,3.16,3.16,0,0,1,3.18-3.29A3.42,3.42,0,0,1,157.87,262.26Z" style="fill:#263238"/>
    <path d="M200.39,262.26a3.16,3.16,0,0,1-3.18,3.29,3.42,3.42,0,0,1-3.4-3.29A3.15,3.15,0,0,1,197,259,3.42,3.42,0,0,1,200.39,262.26Z" style="fill:#263238"/>
    <path d="M214.56,262.26a3.15,3.15,0,0,1-3.18,3.29,3.43,3.43,0,0,1-3.4-3.29,3.16,3.16,0,0,1,3.18-3.29A3.42,3.42,0,0,1,214.56,262.26Z" style="fill:#263238"/>
  </g>
  <g id="freepik--Character--inject-66">
    <path d="M333.91,174.28c1.33,2.14,2.44,4.18,3.58,6.31s2.17,4.27,3.18,6.46a92.36,92.36,0,0,1,5.1,13.73c.18.59.31,1.22.46,1.83l.22.93.11.46.13.76a13.68,13.68,0,0,1-.31,5.16,29.24,29.24,0,0,1-3.12,7.45A59.22,59.22,0,0,1,334.38,229l-4.21-3.18a111.39,111.39,0,0,0,5.63-12,24.86,24.86,0,0,0,1.53-5.63,4.46,4.46,0,0,0-.08-1.77l-.4-1.22c-.16-.5-.31-1-.5-1.51a113.4,113.4,0,0,0-5.27-12.08c-2-4-4.15-8-6.3-11.82Z" style="fill:#ff8b7b"/>
    <path d="M331.24,224.43l-4.6,2.43,5.28,6.18s3.3-2.23,3.45-5.63Z" style="fill:#ff8b7b"/>
    <polygon points="320.47 230.67 326.12 235.16 331.92 233.04 326.64 226.86 320.47 230.67" style="fill:#ff8b7b"/>
    <path d="M301.15,141.56c-.11.56-.5.95-.86.88s-.57-.59-.46-1.14.5-1,.87-.88S301.26,141,301.15,141.56Z" style="fill:#263238"/>
    <path d="M300.7,142.52a20.26,20.26,0,0,1-3.62,4.22,3.29,3.29,0,0,0,2.56,1Z" style="fill:#ff5652"/>
    <path d="M298.9,162.14l0-6.56,8.68,1s-.14,5.64-5,7.3Z" style="fill:#ff8b7b"/>
    <polygon points="301.4 150.86 307.51 152.62 307.62 156.63 298.94 155.58 301.4 150.86" style="fill:#ff8b7b"/>
    <path d="M307.51,152.62l-6.11-1.76-1.19,2.28a9.73,9.73,0,0,0,5.64,8.48,9.56,9.56,0,0,0,1.77-5Z" style="opacity:0.2"/>
    <path d="M303.81,138.89a.34.34,0,0,0,.25-.56,3.32,3.32,0,0,0-2.84-1.1.33.33,0,0,0-.27.38.34.34,0,0,0,.38.28h0a2.63,2.63,0,0,1,2.24.89A.34.34,0,0,0,303.81,138.89Z" style="fill:#263238"/>
    <path d="M316.59,151.68c-1,5.15-1.62,12.28,2,15.71,0,0-1.4,5.22-11,5.22-10.51,0-5.05-4.58-5.05-4.58,4.37-1.36,4.33-6.33,3.33-10.33Z" style="fill:#ff8b7b"/>
    <path d="M320.54,170.83c.94-1.32.9-5.51-.1-6.25-1.61-1.19-8.52-1.47-17.81.67,1,4.06-1.15,6.18-1.15,6.18Z" style="fill: rgb(184, 148, 39);"/>
    <path d="M351.8,408.24a2.29,2.29,0,0,1-1.76-.1.68.68,0,0,1-.16-.77.77.77,0,0,1,.43-.49c.95-.46,3.13.43,3.23.47a.16.16,0,0,1,.1.15.19.19,0,0,1-.09.16A9.83,9.83,0,0,1,351.8,408.24Zm-1.15-1.13a.84.84,0,0,0-.19.07.42.42,0,0,0-.26.28c-.09.3,0,.4.06.43.38.32,1.78,0,2.77-.37A5.49,5.49,0,0,0,350.65,407.11Z" style="fill:#407BFF"/>
    <path d="M353.51,407.67h-.08c-.8-.23-2.5-1.44-2.52-2.23a.55.55,0,0,1,.43-.54.86.86,0,0,1,.73.06c.94.48,1.54,2.42,1.56,2.51a.16.16,0,0,1,0,.16A.14.14,0,0,1,353.51,407.67Zm-2-2.49-.08,0c-.2.07-.2.17-.2.22,0,.47,1.14,1.42,2,1.8-.21-.56-.67-1.67-1.28-2A.58.58,0,0,0,351.52,405.18Z" style="fill:#407BFF"/>
    <path d="M299.86,409.42c-.9,0-1.77-.13-2.06-.53a.63.63,0,0,1,0-.73.83.83,0,0,1,.53-.39c1.17-.32,3.63,1.08,3.73,1.14a.15.15,0,0,1,.08.17.16.16,0,0,1-.13.14A12.2,12.2,0,0,1,299.86,409.42Zm-1.11-1.37a1,1,0,0,0-.32,0,.51.51,0,0,0-.33.23c-.12.21-.07.31,0,.37.33.46,2.1.47,3.41.28A7.61,7.61,0,0,0,298.75,408.05Z" style="fill:#407BFF"/>
    <path d="M302,409.22h-.07c-.85-.38-2.53-1.9-2.4-2.7,0-.19.16-.42.62-.46a1.2,1.2,0,0,1,.92.28,4.78,4.78,0,0,1,1.1,2.71.2.2,0,0,1-.07.15A.19.19,0,0,1,302,409.22Zm-1.72-2.85h-.1c-.3,0-.32.14-.32.18-.08.48,1.06,1.68,1.93,2.2a3.87,3.87,0,0,0-.93-2.17A.88.88,0,0,0,300.27,406.37Z" style="fill:#407BFF"/>
    <polygon points="309.72 409.06 302.69 409.06 301.99 392.77 309.02 392.77 309.72 409.06" style="fill:#ff8b7b"/>
    <polygon points="361.35 405.8 354.48 407.29 347.57 392.12 354.45 390.63 361.35 405.8" style="fill:#ff8b7b"/>
    <path d="M353.81,406.6l7.73-1.67a.61.61,0,0,1,.68.34l2.68,5.82a1,1,0,0,1-.74,1.44c-2.7.53-4.05.66-7.44,1.39-2.09.46-6.81,1.61-9.7,2.23s-3.88-2.15-2.75-2.66c5.05-2.31,7.15-4.34,8.52-6.23A1.71,1.71,0,0,1,353.81,406.6Z" style="fill:#263238"/>
    <path d="M302.74,408.24h7.68a.62.62,0,0,1,.6.48l1.39,6.25a1,1,0,0,1-1,1.26c-2.77-.05-6.77-.21-10.25-.21-4.08,0-7.59.22-12.37.22-2.89,0-3.69-2.92-2.48-3.19,5.5-1.2,10-1.33,14.75-4.26A3.27,3.27,0,0,1,302.74,408.24Z" style="fill:#263238"/>
    <path d="M331.17,169c6.59,1.51,12,18.34,12,18.34L330,197.41a28.93,28.93,0,0,1-7-13C320.67,175.59,324.43,167.44,331.17,169Z" style="fill: rgb(250, 187, 0);"/>
    <path d="M296.5,189.07c-1.64,1.77-3.28,3.35-5,5-.85.8-1.71,1.6-2.59,2.37l-1.33,1.17-.33.29-.57.46a8,8,0,0,1-1.93,1.14,6.29,6.29,0,0,1-2.44.5,6,6,0,0,1-2.1-.37,5.91,5.91,0,0,1-2-1.27,6,6,0,0,1-1.56-2.59,6.81,6.81,0,0,1-.29-1.49,10.1,10.1,0,0,1,0-1.78c.05-.48.11-.9.19-1.29a24.76,24.76,0,0,1,1.16-4,35.81,35.81,0,0,1,1.55-3.62c.64-1.27,1.25-2.2,1.86-3.26a81.65,81.65,0,0,1,8.45-11.46,77.42,77.42,0,0,1,10.25-9.72l3.68,3.79c-2.58,3.46-5.12,7.17-7.47,10.82a117.26,117.26,0,0,0-6.4,11.25c-.43.94-1,2-1.27,2.76a26.83,26.83,0,0,0-.93,2.7,17.45,17.45,0,0,0-.57,2.52,3.94,3.94,0,0,0,0,.4c0,.08,0,.12,0-.09a2.78,2.78,0,0,0-.13-.66,4.29,4.29,0,0,0-1.15-1.86,4.9,4.9,0,0,0-1.65-1,4.78,4.78,0,0,0-1.68-.31,4.08,4.08,0,0,0-1.61.31,3.68,3.68,0,0,0-.5.25l.38-.35,1.21-1.1,2.39-2.24c1.58-1.49,3.17-3.08,4.67-4.56Z" style="fill:#ff8b7b"/>
    <path d="M325.52,181.36c3.58,3.54,4.75,10,5,15.6l-.58.45a28.93,28.93,0,0,1-7-13c-.13-.52-.25-1-.34-1.57Z" style="opacity:0.2"/>
    <path d="M 289.51 176 C 288.07 183.6 287.17 199.21 291.34 230.11 L 329 230.11 C 329.26 224.34 325.63 196.16 331.2 168.95 C 327.038 168.151 318.355 163.129 318.6 167.36 C 318.997 174.212 309.837 169.439 302.6 167.36 C 300.901 166.872 299.1 167.78 297.6 168.05 C 293.516 168.766 290.298 171.929 289.51 176 Z" style="fill: rgb(250, 187, 0);"/>
    <path d="M 289.51 292.805 C 288.07 284 287.17 265.913 291.34 230.11 L 329 230.11 C 329.26 236.795 325.63 269.447 331.2 300.974 C 327.038 301.9 322.83 302.515 318.6 302.816 C 313.271 303.171 307.929 303.171 302.6 302.816 C 300.84 302.631 296.079 301.455 294.579 301.142 C 290.495 300.311 290.298 297.522 289.51 292.805 Z" style="opacity: 0.4;"/>
    <path d="M295.27,187.27l-6.8-1.63c-.21,4.12-.23,9.22.07,15.53C291.67,197.61,295.67,192.05,295.27,187.27Z" style="opacity:0.2"/>
    <polygon points="301.99 392.77 302.35 401.17 309.39 401.17 309.03 392.77 301.99 392.77" style="opacity:0.2"/>
    <polygon points="354.45 390.63 347.57 392.12 351.13 399.94 358.01 398.45 354.45 390.63" style="opacity:0.2"/>
    <path d="M319.93,144.16c-1.8,6.74-2.52,10.78-6.68,13.58C307,162,299.2,157.12,299,150c-.22-6.43,2.77-16.38,10-17.74A9.52,9.52,0,0,1,319.93,144.16Z" style="fill:#ff8b7b"/>
    <path d="M304.15,144.41c-.34-.9-1.89-7.87-.43-9.68s18.11-.5,20.57,1.92c4.09,4,1.25,7.6-3.22,12.23-3.36,3.48-3.49,7.4-5.19,8-3,1-7.58.06-8.5-3.11S304.15,144.41,304.15,144.41Z" style="fill:#263238"/>
    <path d="M322.27,128.72c-5.88-2.5-16.91.27-22.87-1.17a9.18,9.18,0,0,0,7.61,9.36,78.65,78.65,0,0,0,15,1.39C328.55,138,327.27,130.85,322.27,128.72Z" style="fill:#263238"/>
    <path d="M323.19,136.86a11.21,11.21,0,0,0,6.23-1.19C330.52,138.33,324.47,139.06,323.19,136.86Z" style="fill:#263238"/>
    <path d="M307.35,144.69a7.91,7.91,0,0,1-2,4.67c-1.54,1.69-3.14.63-3.41-1.42-.24-1.86.26-5,2.14-5.9S307.48,142.6,307.35,144.69Z" style="fill:#ff8b7b"/>
    <path d="M 304.69 230.14 C 304.69 230.14 312.69 283.89 317.06 304.03 C 321.85 326.08 347.59 399.03 347.59 399.03 L 360.18 396.3 C 360.18 396.3 342.18 336.84 338.18 306.01 C 335.08 282.33 328.99 230.12 328.99 230.12 L 304.69 230.14 Z" style="fill: rgb(0, 204, 122);"/>
    <path d="M344.57,394.84c-.05,0,2.35,4.56,2.35,4.56l14.16-3.07-1.19-4.26Z" style="fill:#263238"/>
    <path d="M 291.34 230.14 C 291.34 230.14 287.319 283.485 291.14 304.14 C 295.201 326.092 299.73 399.5 299.73 399.5 L 311.65 399.5 C 311.65 399.5 312.08 327.75 312.65 305.84 C 313.23 281.96 316.11 230.1 316.11 230.1 L 291.34 230.14 Z" style="fill: rgb(0, 204, 122);"/>
    <path d="M297.44,394.8c-.06,0,.67,4.94.67,4.94H312.6l.4-4.41Z" style="fill:#263238"/>
    <path d="M 304.25 180.832 C 307.62 188.778 287.81 198.14 287.81 198.14 L 279.23 188.524 C 279.23 188.524 285 178.541 292 174.048 C 300.65 168.506 301.68 174.782 304.25 180.832 Z" style="fill: rgb(250, 187, 0);"/>
  </g>
  <g id="freepik--Thinking--inject-66">
    <ellipse cx="381.87" cy="86.33" rx="36.09" ry="23" style="fill: rgba(239, 186, 24, 0.31);"/>
    <path d="M368.85,97.91a10.11,10.11,0,0,1-9.93-8.39A10.22,10.22,0,0,1,366.63,78h0a10.06,10.06,0,0,1,10.82,4.52l23.17-4.78a3.62,3.62,0,0,1,4.24,2.49,3.49,3.49,0,0,1-2.67,4.31l-.6.12a.59.59,0,0,0-.42.31.63.63,0,0,0,0,.52l.41,1.06a1.59,1.59,0,0,1-.62,1.93,1.9,1.9,0,0,0-.89,1.41,1.57,1.57,0,0,1-1.21,1.39l-.47.1a1.56,1.56,0,0,1-1.66-.8,1.95,1.95,0,0,0-3.61.75,1.55,1.55,0,0,1-1.2,1.38l-.47.1a1.57,1.57,0,0,1-1.66-.8,2,2,0,0,0-1.39-.94A1.59,1.59,0,0,1,387,89.5l0-1.14a.62.62,0,0,0-.74-.58l-7.39,1.52a10.07,10.07,0,0,1-7.95,8.4A10.36,10.36,0,0,1,368.85,97.91Zm-2-19a9.21,9.21,0,0,0-7,10.42,9.11,9.11,0,0,0,18-.52l0-.36L386,86.8A1.62,1.62,0,0,1,388,88.32l0,1.14a.59.59,0,0,0,.48.57,2.91,2.91,0,0,1,2.11,1.43.58.58,0,0,0,.59.32l.46-.1a.56.56,0,0,0,.42-.52A2.95,2.95,0,0,1,397.56,90a.57.57,0,0,0,.58.32l.48-.1a.56.56,0,0,0,.41-.52,2.9,2.9,0,0,1,1.37-2.15.61.61,0,0,0,.21-.72l-.41-1.06a1.61,1.61,0,0,1,1.18-2.16l.61-.13a2.51,2.51,0,0,0,1.91-3.07,2.61,2.61,0,0,0-3.08-1.77L377,83.59l-.18-.31a9,9,0,0,0-9.92-4.35Zm2,15.28a6.41,6.41,0,0,1-3.51-1,6.41,6.41,0,1,1,4.81.92h0A6.37,6.37,0,0,1,368.86,94.21Zm0-11.81a6,6,0,0,0-1.11.11A5.41,5.41,0,0,0,370,93.1h0a5.41,5.41,0,0,0,1.88-9.81A5.32,5.32,0,0,0,368.89,82.4Z" style="fill: rgb(9, 255, 157); paint-order: stroke;"/>
    <ellipse cx="352.5" cy="115.26" rx="11.86" ry="7.56" style="opacity: 0.6; fill: rgb(250, 187, 0);"/>
    <ellipse cx="333.63" cy="122.82" rx="4.87" ry="3.1" style="opacity: 0.3; fill: rgb(250, 187, 0);"/>
  </g>
</svg>